<svg width="358" height="85" viewBox="0 0 358 85" fill="none" xmlns="http://www.w3.org/2000/svg">
<path d="M1.51705 23V5.54545H13.0739V8.58807H5.20739V12.7472H12.3068V15.7898H5.20739V23H1.51705ZM15.4879 23V9.90909H19.1186V23H15.4879ZM17.3118 8.22159C16.772 8.22159 16.3089 8.04261 15.9226 7.68466C15.5419 7.32102 15.3516 6.88636 15.3516 6.38068C15.3516 5.88068 15.5419 5.4517 15.9226 5.09375C16.3089 4.73011 16.772 4.54829 17.3118 4.54829C17.8516 4.54829 18.3118 4.73011 18.6925 5.09375C19.0788 5.4517 19.272 5.88068 19.272 6.38068C19.272 6.88636 19.0788 7.32102 18.6925 7.68466C18.3118 8.04261 17.8516 8.22159 17.3118 8.22159ZM25.6577 5.54545V23H22.027V5.54545H25.6577ZM28.5661 23V9.90909H32.1967V23H28.5661ZM30.3899 8.22159C29.8501 8.22159 29.3871 8.04261 29.0007 7.68466C28.62 7.32102 28.4297 6.88636 28.4297 6.38068C28.4297 5.88068 28.62 5.4517 29.0007 5.09375C29.3871 4.73011 29.8501 4.54829 30.3899 4.54829C30.9297 4.54829 31.3899 4.73011 31.7706 5.09375C32.157 5.4517 32.3501 5.88068 32.3501 6.38068C32.3501 6.88636 32.157 7.32102 31.7706 7.68466C31.3899 8.04261 30.9297 8.22159 30.3899 8.22159ZM38.7358 15.4318V23H35.1051V9.90909H38.5653V12.2188H38.7188C39.0085 11.4574 39.4943 10.8551 40.1761 10.4119C40.858 9.96307 41.6847 9.73864 42.6562 9.73864C43.5653 9.73864 44.358 9.9375 45.0341 10.3352C45.7102 10.733 46.2358 11.3011 46.6108 12.0398C46.9858 12.7727 47.1733 13.6477 47.1733 14.6648V23H43.5426V15.3125C43.5483 14.5114 43.3438 13.8864 42.929 13.4375C42.5142 12.983 41.9432 12.7557 41.2159 12.7557C40.7273 12.7557 40.2955 12.8608 39.9205 13.071C39.5511 13.2812 39.2614 13.5881 39.0511 13.9915C38.8466 14.3892 38.7415 14.8693 38.7358 15.4318ZM55.9325 28.1818C54.7564 28.1818 53.7479 28.0199 52.907 27.696C52.0717 27.3778 51.407 26.9432 50.9126 26.392C50.4183 25.8409 50.0973 25.2216 49.9496 24.5341L53.3075 24.0824C53.4098 24.3438 53.5717 24.5881 53.7933 24.8153C54.0149 25.0426 54.3075 25.2244 54.6712 25.3608C55.0405 25.5028 55.4893 25.5739 56.0178 25.5739C56.8075 25.5739 57.4581 25.3807 57.9695 24.9943C58.4865 24.6136 58.745 23.9744 58.745 23.0767V20.6818H58.5916C58.4325 21.0455 58.1939 21.3892 57.8757 21.7131C57.5575 22.0369 57.1484 22.3011 56.6484 22.5057C56.1484 22.7102 55.5518 22.8125 54.8587 22.8125C53.8757 22.8125 52.9808 22.5852 52.174 22.1307C51.3729 21.6705 50.7337 20.9687 50.2564 20.0256C49.7848 19.0767 49.549 17.8778 49.549 16.429C49.549 14.946 49.7905 13.7074 50.2734 12.7131C50.7564 11.7187 51.3984 10.9744 52.1996 10.4801C53.0064 9.9858 53.8899 9.73864 54.8501 9.73864C55.5831 9.73864 56.1967 9.86364 56.6911 10.1136C57.1854 10.358 57.5831 10.6648 57.8842 11.0341C58.1911 11.3977 58.4268 11.7557 58.5916 12.108H58.728V9.90909H62.3331V23.1278C62.3331 24.2415 62.0604 25.1733 61.5149 25.9233C60.9695 26.6733 60.2138 27.2358 59.2479 27.6108C58.2876 27.9915 57.1825 28.1818 55.9325 28.1818ZM56.0092 20.0852C56.5945 20.0852 57.0888 19.9403 57.4922 19.6506C57.9013 19.3551 58.2138 18.9347 58.4297 18.3892C58.6513 17.8381 58.7621 17.179 58.7621 16.4119C58.7621 15.6449 58.6541 14.9801 58.4382 14.4176C58.2223 13.8494 57.9098 13.4091 57.5007 13.0966C57.0916 12.7841 56.5945 12.6278 56.0092 12.6278C55.4126 12.6278 54.9098 12.7898 54.5007 13.1136C54.0916 13.4318 53.782 13.875 53.5717 14.4432C53.3615 15.0114 53.2564 15.6676 53.2564 16.4119C53.2564 17.1676 53.3615 17.821 53.5717 18.3722C53.7876 18.9176 54.0973 19.3409 54.5007 19.642C54.9098 19.9375 55.4126 20.0852 56.0092 20.0852ZM73.8537 23H69.8991L75.9247 5.54545H80.6804L86.6974 23H82.7429L78.3707 9.53409H78.2344L73.8537 23ZM73.6065 16.1392H82.9474V19.0199H73.6065V16.1392ZM92.3608 15.4318V23H88.7301V9.90909H92.1903V12.2188H92.3438C92.6335 11.4574 93.1193 10.8551 93.8011 10.4119C94.483 9.96307 95.3097 9.73864 96.2812 9.73864C97.1903 9.73864 97.983 9.9375 98.6591 10.3352C99.3352 10.733 99.8608 11.3011 100.236 12.0398C100.611 12.7727 100.798 13.6477 100.798 14.6648V23H97.1676V15.3125C97.1733 14.5114 96.9688 13.8864 96.554 13.4375C96.1392 12.983 95.5682 12.7557 94.8409 12.7557C94.3523 12.7557 93.9205 12.8608 93.5455 13.071C93.1761 13.2812 92.8864 13.5881 92.6761 13.9915C92.4716 14.3892 92.3665 14.8693 92.3608 15.4318ZM107.393 23.2472C106.558 23.2472 105.813 23.1023 105.16 22.8125C104.506 22.517 103.989 22.0824 103.609 21.5085C103.234 20.929 103.046 20.2074 103.046 19.3438C103.046 18.6165 103.18 18.0057 103.447 17.5114C103.714 17.017 104.077 16.6193 104.538 16.3182C104.998 16.017 105.521 15.7898 106.106 15.6364C106.697 15.483 107.316 15.375 107.964 15.3125C108.725 15.233 109.339 15.1591 109.805 15.0909C110.271 15.017 110.609 14.9091 110.819 14.767C111.029 14.625 111.134 14.4148 111.134 14.1364V14.0852C111.134 13.5455 110.964 13.1278 110.623 12.8324C110.288 12.5369 109.81 12.3892 109.191 12.3892C108.538 12.3892 108.018 12.5341 107.631 12.8239C107.245 13.108 106.989 13.4659 106.864 13.8977L103.506 13.625C103.677 12.8295 104.012 12.142 104.512 11.5625C105.012 10.9773 105.657 10.5284 106.447 10.2159C107.242 9.89773 108.163 9.73864 109.208 9.73864C109.935 9.73864 110.631 9.82386 111.296 9.99432C111.967 10.1648 112.56 10.429 113.077 10.7869C113.6 11.1449 114.012 11.6051 114.313 12.1676C114.614 12.7244 114.765 13.392 114.765 14.1705V23H111.322V21.1847H111.219C111.009 21.5938 110.728 21.9545 110.376 22.267C110.023 22.5739 109.6 22.8153 109.106 22.9915C108.612 23.1619 108.04 23.2472 107.393 23.2472ZM108.433 20.7415C108.967 20.7415 109.438 20.6364 109.847 20.4261C110.256 20.2102 110.577 19.9205 110.81 19.5568C111.043 19.1932 111.16 18.7812 111.16 18.321V16.9318C111.046 17.0057 110.89 17.0739 110.691 17.1364C110.498 17.1932 110.279 17.2472 110.035 17.2983C109.79 17.3437 109.546 17.3864 109.302 17.4261C109.058 17.4602 108.836 17.4915 108.637 17.5199C108.211 17.5824 107.839 17.6818 107.521 17.8182C107.202 17.9545 106.955 18.1392 106.779 18.3722C106.603 18.5994 106.515 18.8835 106.515 19.2244C106.515 19.7188 106.694 20.0966 107.052 20.358C107.415 20.6136 107.876 20.7415 108.433 20.7415ZM121.212 5.54545V23H117.582V5.54545H121.212ZM126.362 27.9091C125.902 27.9091 125.47 27.8722 125.067 27.7983C124.669 27.7301 124.339 27.642 124.078 27.5341L124.896 24.8239C125.322 24.9545 125.706 25.0256 126.047 25.0369C126.393 25.0483 126.692 24.9688 126.942 24.7983C127.197 24.6278 127.405 24.3381 127.564 23.929L127.777 23.375L123.081 9.90909H126.899L129.609 19.5227H129.746L132.482 9.90909H136.325L131.237 24.4148C130.993 25.1193 130.661 25.733 130.24 26.2557C129.825 26.7841 129.3 27.1903 128.663 27.4744C128.027 27.7642 127.26 27.9091 126.362 27.9091ZM149.075 13.642L145.751 13.8466C145.695 13.5625 145.572 13.3068 145.385 13.0795C145.197 12.8466 144.95 12.6619 144.643 12.5256C144.342 12.3835 143.982 12.3125 143.561 12.3125C142.999 12.3125 142.524 12.4318 142.138 12.6705C141.751 12.9034 141.558 13.2159 141.558 13.608C141.558 13.9205 141.683 14.1847 141.933 14.4006C142.183 14.6165 142.612 14.7898 143.22 14.9205L145.589 15.3977C146.862 15.6591 147.811 16.0795 148.436 16.6591C149.061 17.2386 149.374 18 149.374 18.9432C149.374 19.8011 149.121 20.554 148.615 21.2017C148.115 21.8494 147.428 22.3551 146.553 22.7188C145.683 23.0767 144.68 23.2557 143.544 23.2557C141.811 23.2557 140.43 22.8949 139.402 22.1733C138.379 21.446 137.78 20.4574 137.604 19.2074L141.175 19.0199C141.283 19.5483 141.544 19.9517 141.959 20.2301C142.374 20.5028 142.905 20.6392 143.553 20.6392C144.189 20.6392 144.7 20.517 145.087 20.2727C145.479 20.0227 145.678 19.7017 145.683 19.3097C145.678 18.9801 145.538 18.7102 145.266 18.5C144.993 18.2841 144.572 18.1193 144.004 18.0057L141.737 17.554C140.459 17.2983 139.507 16.8551 138.882 16.2244C138.263 15.5937 137.953 14.7898 137.953 13.8125C137.953 12.9716 138.18 12.2472 138.635 11.6392C139.095 11.0312 139.74 10.5625 140.57 10.233C141.405 9.90341 142.382 9.73864 143.501 9.73864C145.155 9.73864 146.456 10.0881 147.405 10.7869C148.359 11.4858 148.916 12.4375 149.075 13.642ZM151.66 23V9.90909H155.29V23H151.66ZM153.484 8.22159C152.944 8.22159 152.481 8.04261 152.094 7.68466C151.714 7.32102 151.523 6.88636 151.523 6.38068C151.523 5.88068 151.714 5.4517 152.094 5.09375C152.481 4.73011 152.944 4.54829 153.484 4.54829C154.023 4.54829 154.484 4.73011 154.864 5.09375C155.251 5.4517 155.444 5.88068 155.444 6.38068C155.444 6.88636 155.251 7.32102 154.864 7.68466C154.484 8.04261 154.023 8.22159 153.484 8.22159ZM169.091 13.642L165.767 13.8466C165.71 13.5625 165.588 13.3068 165.401 13.0795C165.213 12.8466 164.966 12.6619 164.659 12.5256C164.358 12.3835 163.997 12.3125 163.577 12.3125C163.014 12.3125 162.54 12.4318 162.153 12.6705C161.767 12.9034 161.574 13.2159 161.574 13.608C161.574 13.9205 161.699 14.1847 161.949 14.4006C162.199 14.6165 162.628 14.7898 163.236 14.9205L165.605 15.3977C166.878 15.6591 167.827 16.0795 168.452 16.6591C169.077 17.2386 169.389 18 169.389 18.9432C169.389 19.8011 169.136 20.554 168.631 21.2017C168.131 21.8494 167.443 22.3551 166.568 22.7188C165.699 23.0767 164.696 23.2557 163.56 23.2557C161.827 23.2557 160.446 22.8949 159.418 22.1733C158.395 21.446 157.795 20.4574 157.619 19.2074L161.19 19.0199C161.298 19.5483 161.56 19.9517 161.974 20.2301C162.389 20.5028 162.92 20.6392 163.568 20.6392C164.205 20.6392 164.716 20.517 165.102 20.2727C165.494 20.0227 165.693 19.7017 165.699 19.3097C165.693 18.9801 165.554 18.7102 165.281 18.5C165.009 18.2841 164.588 18.1193 164.02 18.0057L161.753 17.554C160.474 17.2983 159.523 16.8551 158.898 16.2244C158.278 15.5937 157.969 14.7898 157.969 13.8125C157.969 12.9716 158.196 12.2472 158.651 11.6392C159.111 11.0312 159.756 10.5625 160.585 10.233C161.42 9.90341 162.398 9.73864 163.517 9.73864C165.17 9.73864 166.472 10.0881 167.42 10.7869C168.375 11.4858 168.932 12.4375 169.091 13.642Z" fill="#111827"/>
<rect x="0.5" y="41.5" width="357" height="43" stroke="#1E293B"/>
<path d="M13.1449 68V58.5455H18.8509V59.5611H14.2898V62.7557H18.5554V63.7713H14.2898V66.9844H18.9247V68H13.1449ZM21.8562 63.7344V68H20.7667V60.9091H21.8192V62.017H21.9116C22.0778 61.657 22.3301 61.3677 22.6687 61.1491C23.0072 60.9276 23.4442 60.8168 23.9798 60.8168C24.4599 60.8168 24.88 60.9152 25.2401 61.1122C25.6001 61.3061 25.8802 61.6016 26.0803 61.9986C26.2803 62.3925 26.3803 62.8911 26.3803 63.4943V68H25.2908V63.5682C25.2908 63.0111 25.1462 62.5772 24.8569 62.2663C24.5676 61.9524 24.1706 61.7955 23.6658 61.7955C23.3181 61.7955 23.0072 61.8709 22.7333 62.0217C22.4625 62.1725 22.2486 62.3925 22.0916 62.6818C21.9347 62.9711 21.8562 63.322 21.8562 63.7344ZM31.455 60.9091V61.8324H27.7803V60.9091H31.455ZM28.8513 59.2102H29.9408V65.9688C29.9408 66.2765 29.9854 66.5073 30.0747 66.6612C30.167 66.812 30.2839 66.9136 30.4255 66.9659C30.5702 67.0152 30.7225 67.0398 30.8825 67.0398C31.0026 67.0398 31.1011 67.0336 31.178 67.0213C31.2549 67.0059 31.3165 66.9936 31.3627 66.9844L31.5843 67.9631C31.5104 67.9908 31.4073 68.0185 31.2749 68.0462C31.1426 68.0769 30.9749 68.0923 30.7718 68.0923C30.464 68.0923 30.1624 68.0262 29.8669 67.8938C29.5745 67.7615 29.3314 67.5599 29.1375 67.2891C28.9467 67.0182 28.8513 66.6766 28.8513 66.2642V59.2102ZM35.9907 68.1477C35.3074 68.1477 34.7181 67.9969 34.2226 67.6953C33.7301 67.3906 33.3501 66.9659 33.0823 66.4212C32.8176 65.8733 32.6853 65.2363 32.6853 64.5099C32.6853 63.7836 32.8176 63.1435 33.0823 62.5895C33.3501 62.0324 33.7224 61.5985 34.1995 61.2876C34.6796 60.9737 35.2397 60.8168 35.8799 60.8168C36.2492 60.8168 36.6139 60.8783 36.974 61.0014C37.3341 61.1245 37.6618 61.3246 37.9573 61.6016C38.2528 61.8755 38.4882 62.2386 38.6636 62.6911C38.839 63.1435 38.9268 63.7005 38.9268 64.3622V64.8239H33.4608V63.8821H37.8188C37.8188 63.482 37.7388 63.125 37.5787 62.8111C37.4218 62.4972 37.1971 62.2494 36.9047 62.0678C36.6154 61.8862 36.2738 61.7955 35.8799 61.7955C35.4459 61.7955 35.0705 61.9032 34.7535 62.1186C34.4395 62.331 34.1979 62.608 34.0287 62.9496C33.8594 63.2912 33.7748 63.6574 33.7748 64.0483V64.6761C33.7748 65.2116 33.8671 65.6656 34.0518 66.038C34.2395 66.4073 34.4996 66.6889 34.8319 66.8828C35.1643 67.0736 35.5506 67.169 35.9907 67.169C36.2769 67.169 36.5354 67.129 36.7662 67.049C37.0001 66.9659 37.2017 66.8428 37.371 66.6797C37.5403 66.5135 37.6711 66.3073 37.7634 66.0611L38.816 66.3565C38.7052 66.7135 38.519 67.0275 38.2574 67.2983C37.9958 67.5661 37.6726 67.7753 37.2879 67.9261C36.9032 68.0739 36.4708 68.1477 35.9907 68.1477ZM40.5841 68V60.9091H41.6366V61.9801H41.7105C41.8398 61.6293 42.0737 61.3446 42.4122 61.1261C42.7507 60.9076 43.1324 60.7983 43.5571 60.7983C43.6371 60.7983 43.7371 60.7998 43.8572 60.8029C43.9772 60.806 44.068 60.8106 44.1295 60.8168V61.9247C44.0926 61.9155 44.008 61.9016 43.8756 61.8832C43.7464 61.8616 43.6094 61.8509 43.4648 61.8509C43.1201 61.8509 42.8123 61.9232 42.5415 62.0678C42.2737 62.2094 42.0613 62.4064 41.9044 62.6587C41.7505 62.908 41.6736 63.1927 41.6736 63.5128V68H40.5841ZM52.161 60.9091V61.8324H48.4863V60.9091H52.161ZM49.5574 59.2102H50.6468V65.9688C50.6468 66.2765 50.6915 66.5073 50.7807 66.6612C50.873 66.812 50.99 66.9136 51.1316 66.9659C51.2762 67.0152 51.4286 67.0398 51.5886 67.0398C51.7086 67.0398 51.8071 67.0336 51.8841 67.0213C51.961 67.0059 52.0225 66.9936 52.0687 66.9844L52.2903 67.9631C52.2164 67.9908 52.1133 68.0185 51.981 68.0462C51.8487 68.0769 51.6809 68.0923 51.4778 68.0923C51.17 68.0923 50.8684 68.0262 50.573 67.8938C50.2806 67.7615 50.0375 67.5599 49.8436 67.2891C49.6528 67.0182 49.5574 66.6766 49.5574 66.2642V59.2102ZM53.7999 68V60.9091H54.8894V68H53.7999ZM54.3539 59.7273C54.1415 59.7273 53.9584 59.6549 53.8045 59.5103C53.6537 59.3656 53.5783 59.1918 53.5783 58.9886C53.5783 58.7855 53.6537 58.6116 53.8045 58.467C53.9584 58.3223 54.1415 58.25 54.3539 58.25C54.5662 58.25 54.7478 58.3223 54.8986 58.467C55.0525 58.6116 55.1294 58.7855 55.1294 58.9886C55.1294 59.1918 55.0525 59.3656 54.8986 59.5103C54.7478 59.6549 54.5662 59.7273 54.3539 59.7273ZM59.7655 68.1477C59.1008 68.1477 58.5283 67.9908 58.0482 67.6768C57.5681 67.3629 57.1988 66.9305 56.9403 66.3796C56.6817 65.8287 56.5525 65.1993 56.5525 64.4915C56.5525 63.7713 56.6848 63.1358 56.9495 62.5849C57.2172 62.0309 57.5896 61.5985 58.0667 61.2876C58.5468 60.9737 59.1069 60.8168 59.7471 60.8168C60.2456 60.8168 60.695 60.9091 61.0951 61.0938C61.4952 61.2784 61.8229 61.5369 62.0784 61.8693C62.3338 62.2017 62.4923 62.5895 62.5539 63.0327H61.4644C61.3813 62.7095 61.1966 62.4233 60.9104 62.174C60.6273 61.9216 60.2456 61.7955 59.7655 61.7955C59.3408 61.7955 58.9684 61.9062 58.6483 62.1278C58.3314 62.3464 58.0836 62.6557 57.9051 63.0558C57.7297 63.4528 57.642 63.919 57.642 64.4545C57.642 65.0024 57.7281 65.4794 57.9005 65.8857C58.0759 66.2919 58.3221 66.6074 58.6391 66.832C58.9592 67.0567 59.3347 67.169 59.7655 67.169C60.0487 67.169 60.3057 67.1198 60.5365 67.0213C60.7673 66.9228 60.9627 66.7812 61.1228 66.5966C61.2828 66.4119 61.3967 66.1903 61.4644 65.9318H62.5539C62.4923 66.3504 62.34 66.7274 62.0969 67.0629C61.8568 67.3952 61.5383 67.6599 61.1412 67.8569C60.7473 68.0508 60.2887 68.1477 59.7655 68.1477ZM65.1622 65.4148L65.1437 64.0668H65.3653L68.4676 60.9091H69.8156L66.5102 64.2514H66.4179L65.1622 65.4148ZM64.1466 68V58.5455H65.2361V68H64.1466ZM68.6523 68L65.8824 64.4915L66.6579 63.7344L70.0372 68H68.6523ZM73.8989 68.1477C73.2156 68.1477 72.6263 67.9969 72.1308 67.6953C71.6383 67.3906 71.2583 66.9659 70.9905 66.4212C70.7258 65.8733 70.5935 65.2363 70.5935 64.5099C70.5935 63.7836 70.7258 63.1435 70.9905 62.5895C71.2583 62.0324 71.6307 61.5985 72.1077 61.2876C72.5878 60.9737 73.1479 60.8168 73.7881 60.8168C74.1574 60.8168 74.5221 60.8783 74.8822 61.0014C75.2423 61.1245 75.57 61.3246 75.8655 61.6016C76.161 61.8755 76.3964 62.2386 76.5718 62.6911C76.7472 63.1435 76.835 63.7005 76.835 64.3622V64.8239H71.3691V63.8821H75.727C75.727 63.482 75.647 63.125 75.4869 62.8111C75.33 62.4972 75.1053 62.2494 74.8129 62.0678C74.5236 61.8862 74.182 61.7955 73.7881 61.7955C73.3541 61.7955 72.9787 61.9032 72.6617 62.1186C72.3477 62.331 72.1061 62.608 71.9369 62.9496C71.7676 63.2912 71.683 63.6574 71.683 64.0483V64.6761C71.683 65.2116 71.7753 65.6656 71.96 66.038C72.1477 66.4073 72.4078 66.6889 72.7401 66.8828C73.0725 67.0736 73.4588 67.169 73.8989 67.169C74.1851 67.169 74.4436 67.129 74.6744 67.049C74.9084 66.9659 75.1099 66.8428 75.2792 66.6797C75.4485 66.5135 75.5793 66.3073 75.6716 66.0611L76.7242 66.3565C76.6134 66.7135 76.4272 67.0275 76.1656 67.2983C75.904 67.5661 75.5808 67.7753 75.1961 67.9261C74.8114 68.0739 74.379 68.1477 73.8989 68.1477ZM78.4923 68V60.9091H79.5448V61.9801H79.6187C79.748 61.6293 79.9819 61.3446 80.3204 61.1261C80.6589 60.9076 81.0406 60.7983 81.4653 60.7983C81.5453 60.7983 81.6453 60.7998 81.7654 60.8029C81.8854 60.806 81.9762 60.8106 82.0377 60.8168V61.9247C82.0008 61.9155 81.9162 61.9016 81.7838 61.8832C81.6546 61.8616 81.5176 61.8509 81.373 61.8509C81.0283 61.8509 80.7205 61.9232 80.4497 62.0678C80.1819 62.2094 79.9695 62.4064 79.8126 62.6587C79.6587 62.908 79.5818 63.1927 79.5818 63.5128V68H78.4923ZM92.0082 62.4972L91.0295 62.7741C90.9679 62.611 90.8771 62.4525 90.7571 62.2987C90.6402 62.1417 90.4801 62.0124 90.277 61.9109C90.0739 61.8093 89.8138 61.7585 89.4968 61.7585C89.0629 61.7585 88.7012 61.8585 88.4119 62.0586C88.1257 62.2556 87.9826 62.5064 87.9826 62.8111C87.9826 63.0819 88.0811 63.2958 88.2781 63.4528C88.475 63.6097 88.7828 63.7405 89.2013 63.8452L90.2539 64.1037C90.8879 64.2576 91.3603 64.493 91.6712 64.81C91.982 65.1239 92.1374 65.5286 92.1374 66.0241C92.1374 66.4304 92.0205 66.7936 91.7866 67.1136C91.5558 67.4337 91.2326 67.6861 90.8171 67.8707C90.4016 68.0554 89.9184 68.1477 89.3675 68.1477C88.6443 68.1477 88.0457 67.9908 87.5717 67.6768C87.0978 67.3629 86.7977 66.9044 86.6715 66.3011L87.7056 66.0426C87.8041 66.4242 87.9903 66.7105 88.2642 66.9013C88.5412 67.0921 88.9028 67.1875 89.3491 67.1875C89.8569 67.1875 90.2601 67.0798 90.5586 66.8643C90.8602 66.6458 91.011 66.3842 91.011 66.0795C91.011 65.8333 90.9248 65.6271 90.7525 65.4609C90.5801 65.2917 90.3155 65.1655 89.9585 65.0824L88.7766 64.8054C88.1272 64.6515 87.6502 64.413 87.3455 64.0898C87.0439 63.7636 86.8931 63.3558 86.8931 62.8665C86.8931 62.4664 87.0054 62.1125 87.2301 61.8047C87.4579 61.4969 87.7672 61.2553 88.158 61.0799C88.552 60.9045 88.9982 60.8168 89.4968 60.8168C90.1985 60.8168 90.7494 60.9706 91.1495 61.2784C91.5527 61.5862 91.8389 61.9924 92.0082 62.4972ZM94.4791 70.6591C94.2945 70.6591 94.1298 70.6437 93.9852 70.6129C93.8405 70.5852 93.7405 70.5575 93.6851 70.5298L93.9621 69.5696C94.2268 69.6373 94.4607 69.6619 94.6638 69.6435C94.8669 69.625 95.047 69.5342 95.2039 69.3711C95.364 69.2111 95.5102 68.951 95.6425 68.5909L95.8456 68.0369L93.2235 60.9091H94.4053L96.3627 66.5597H96.4365L98.3939 60.9091H99.5757L96.5658 69.0341C96.4304 69.4003 96.2626 69.7035 96.0626 69.9435C95.8625 70.1867 95.6302 70.3667 95.3655 70.4837C95.1039 70.6006 94.8084 70.6591 94.4791 70.6591ZM101.014 68V60.9091H102.066V62.017H102.159C102.306 61.6385 102.545 61.3446 102.874 61.1353C103.204 60.9229 103.599 60.8168 104.061 60.8168C104.528 60.8168 104.918 60.9229 105.229 61.1353C105.543 61.3446 105.787 61.6385 105.963 62.017H106.036C106.218 61.6508 106.49 61.36 106.854 61.1445C107.217 60.926 107.652 60.8168 108.16 60.8168C108.794 60.8168 109.313 61.0153 109.716 61.4123C110.119 61.8062 110.321 62.4202 110.321 63.2543V68H109.231V63.2543C109.231 62.7311 109.088 62.3571 108.802 62.1325C108.516 61.9078 108.179 61.7955 107.791 61.7955C107.292 61.7955 106.906 61.9463 106.632 62.2479C106.358 62.5464 106.221 62.925 106.221 63.3835V68H105.113V63.1435C105.113 62.7403 104.982 62.4156 104.721 62.1694C104.459 61.9201 104.122 61.7955 103.71 61.7955C103.427 61.7955 103.162 61.8709 102.916 62.0217C102.673 62.1725 102.476 62.3817 102.325 62.6495C102.177 62.9142 102.103 63.2204 102.103 63.5682V68H101.014ZM112.46 68V58.5455H113.55V62.0355H113.642C113.722 61.9124 113.833 61.7554 113.975 61.5646C114.119 61.3707 114.325 61.1984 114.593 61.0476C114.864 60.8937 115.23 60.8168 115.692 60.8168C116.289 60.8168 116.815 60.966 117.271 61.2646C117.726 61.5631 118.082 61.9863 118.337 62.5341C118.593 63.0819 118.72 63.7282 118.72 64.473C118.72 65.224 118.593 65.8749 118.337 66.4258C118.082 66.9736 117.728 67.3983 117.275 67.6999C116.823 67.9985 116.301 68.1477 115.71 68.1477C115.255 68.1477 114.89 68.0723 114.616 67.9215C114.342 67.7676 114.131 67.5937 113.984 67.3999C113.836 67.2029 113.722 67.0398 113.642 66.9105H113.513V68H112.46ZM113.531 64.4545C113.531 64.9901 113.61 65.4625 113.767 65.8718C113.924 66.2781 114.153 66.5966 114.455 66.8274C114.756 67.0552 115.126 67.169 115.563 67.169C116.018 67.169 116.398 67.049 116.703 66.8089C117.011 66.5658 117.241 66.2396 117.395 65.8303C117.552 65.4179 117.631 64.9593 117.631 64.4545C117.631 63.956 117.554 63.5066 117.4 63.1065C117.249 62.7034 117.02 62.3848 116.712 62.1509C116.407 61.9139 116.024 61.7955 115.563 61.7955C115.119 61.7955 114.747 61.9078 114.445 62.1325C114.144 62.354 113.916 62.6649 113.762 63.065C113.608 63.462 113.531 63.9252 113.531 64.4545ZM123.267 68.1477C122.627 68.1477 122.066 67.9954 121.582 67.6907C121.102 67.386 120.727 66.9598 120.456 66.4119C120.188 65.8641 120.054 65.224 120.054 64.4915C120.054 63.7528 120.188 63.1081 120.456 62.5572C120.727 62.0063 121.102 61.5785 121.582 61.2738C122.066 60.9691 122.627 60.8168 123.267 60.8168C123.908 60.8168 124.468 60.9691 124.948 61.2738C125.431 61.5785 125.807 62.0063 126.074 62.5572C126.345 63.1081 126.481 63.7528 126.481 64.4915C126.481 65.224 126.345 65.8641 126.074 66.4119C125.807 66.9598 125.431 67.386 124.948 67.6907C124.468 67.9954 123.908 68.1477 123.267 68.1477ZM123.267 67.169C123.754 67.169 124.154 67.0444 124.468 66.7951C124.782 66.5458 125.014 66.218 125.165 65.8118C125.316 65.4055 125.391 64.9654 125.391 64.4915C125.391 64.0175 125.316 63.5759 125.165 63.1665C125.014 62.7572 124.782 62.4264 124.468 62.174C124.154 61.9216 123.754 61.7955 123.267 61.7955C122.781 61.7955 122.381 61.9216 122.067 62.174C121.753 62.4264 121.521 62.7572 121.37 63.1665C121.219 63.5759 121.144 64.0175 121.144 64.4915C121.144 64.9654 121.219 65.4055 121.37 65.8118C121.521 66.218 121.753 66.5458 122.067 66.7951C122.381 67.0444 122.781 67.169 123.267 67.169ZM129.233 58.5455V68H128.144V58.5455H129.233ZM135.273 64.0114C135.273 62.848 135.423 61.7785 135.725 60.8029C136.03 59.8242 136.464 58.924 137.027 58.1023H137.987C137.766 58.407 137.558 58.7824 137.364 59.2287C137.173 59.6719 137.005 60.1597 136.861 60.6921C136.716 61.2215 136.602 61.7693 136.519 62.3356C136.439 62.9019 136.399 63.4605 136.399 64.0114C136.399 64.7438 136.47 65.4871 136.611 66.2411C136.753 66.9951 136.944 67.6953 137.184 68.3416C137.424 68.9879 137.692 69.5142 137.987 69.9205H137.027C136.464 69.0987 136.03 68.2 135.725 67.2244C135.423 66.2457 135.273 65.1747 135.273 64.0114ZM142.415 68.1477C141.732 68.1477 141.143 67.9969 140.647 67.6953C140.155 67.3906 139.775 66.9659 139.507 66.4212C139.242 65.8733 139.11 65.2363 139.11 64.5099C139.11 63.7836 139.242 63.1435 139.507 62.5895C139.775 62.0324 140.147 61.5985 140.624 61.2876C141.104 60.9737 141.665 60.8168 142.305 60.8168C142.674 60.8168 143.039 60.8783 143.399 61.0014C143.759 61.1245 144.087 61.3246 144.382 61.6016C144.678 61.8755 144.913 62.2386 145.088 62.6911C145.264 63.1435 145.352 63.7005 145.352 64.3622V64.8239H139.886V63.8821H144.244C144.244 63.482 144.164 63.125 144.004 62.8111C143.847 62.4972 143.622 62.2494 143.33 62.0678C143.04 61.8862 142.699 61.7955 142.305 61.7955C141.871 61.7955 141.495 61.9032 141.178 62.1186C140.864 62.331 140.623 62.608 140.453 62.9496C140.284 63.2912 140.2 63.6574 140.2 64.0483V64.6761C140.2 65.2116 140.292 65.6656 140.477 66.038C140.664 66.4073 140.924 66.6889 141.257 66.8828C141.589 67.0736 141.975 67.169 142.415 67.169C142.702 67.169 142.96 67.129 143.191 67.049C143.425 66.9659 143.627 66.8428 143.796 66.6797C143.965 66.5135 144.096 66.3073 144.188 66.0611L145.241 66.3565C145.13 66.7135 144.944 67.0275 144.682 67.2983C144.421 67.5661 144.097 67.7753 143.713 67.9261C143.328 68.0739 142.896 68.1477 142.415 68.1477ZM147.803 68.0739C147.575 68.0739 147.38 67.9923 147.217 67.8292C147.054 67.6661 146.972 67.4706 146.972 67.2429C146.972 67.0152 147.054 66.8197 147.217 66.6566C147.38 66.4935 147.575 66.4119 147.803 66.4119C148.031 66.4119 148.226 66.4935 148.389 66.6566C148.552 66.8197 148.634 67.0152 148.634 67.2429C148.634 67.3937 148.595 67.5322 148.518 67.6584C148.445 67.7846 148.345 67.8861 148.218 67.9631C148.095 68.0369 147.957 68.0739 147.803 68.0739ZM153.451 70.8068C152.925 70.8068 152.472 70.7391 152.094 70.6037C151.715 70.4714 151.4 70.2959 151.148 70.0774C150.898 69.862 150.7 69.6312 150.552 69.3849L151.42 68.7756C151.518 68.9048 151.643 69.0526 151.794 69.2188C151.945 69.388 152.151 69.5342 152.412 69.6573C152.677 69.7835 153.023 69.8466 153.451 69.8466C154.024 69.8466 154.496 69.7081 154.868 69.4311C155.241 69.1541 155.427 68.7202 155.427 68.1293V66.6889H155.335C155.255 66.8182 155.141 66.9782 154.993 67.169C154.848 67.3568 154.639 67.5245 154.365 67.6722C154.094 67.8169 153.728 67.8892 153.267 67.8892C152.694 67.8892 152.18 67.7538 151.725 67.483C151.272 67.2121 150.914 66.8182 150.649 66.3011C150.387 65.7841 150.257 65.1562 150.257 64.4176C150.257 63.6913 150.384 63.0588 150.64 62.5202C150.895 61.9786 151.251 61.56 151.706 61.2646C152.162 60.966 152.688 60.8168 153.285 60.8168C153.747 60.8168 154.113 60.8937 154.384 61.0476C154.658 61.1984 154.867 61.3707 155.012 61.5646C155.159 61.7554 155.273 61.9124 155.353 62.0355H155.464V60.9091H156.517V68.2031C156.517 68.8125 156.378 69.308 156.101 69.6896C155.827 70.0743 155.458 70.3559 154.993 70.5344C154.531 70.716 154.017 70.8068 153.451 70.8068ZM153.414 66.9105C153.851 66.9105 154.221 66.8105 154.522 66.6104C154.824 66.4104 155.053 66.1226 155.21 65.7472C155.367 65.3717 155.445 64.9223 155.445 64.3991C155.445 63.8883 155.369 63.4374 155.215 63.0465C155.061 62.6557 154.833 62.3494 154.531 62.1278C154.23 61.9062 153.857 61.7955 153.414 61.7955C152.953 61.7955 152.568 61.9124 152.26 62.1463C151.955 62.3802 151.726 62.6941 151.572 63.0881C151.421 63.482 151.346 63.919 151.346 64.3991C151.346 64.8916 151.423 65.3271 151.577 65.7056C151.734 66.0811 151.965 66.3765 152.269 66.592C152.577 66.8043 152.959 66.9105 153.414 66.9105ZM159.305 68.0739C159.077 68.0739 158.882 67.9923 158.719 67.8292C158.555 67.6661 158.474 67.4706 158.474 67.2429C158.474 67.0152 158.555 66.8197 158.719 66.6566C158.882 66.4935 159.077 66.4119 159.305 66.4119C159.533 66.4119 159.728 66.4935 159.891 66.6566C160.054 66.8197 160.136 67.0152 160.136 67.2429C160.136 67.3937 160.097 67.5322 160.02 67.6584C159.947 67.7846 159.847 67.8861 159.72 67.9631C159.597 68.0369 159.459 68.0739 159.305 68.0739ZM166.283 68H165.082L168.554 58.5455H169.736L173.207 68H172.007L169.182 60.0412H169.108L166.283 68ZM166.726 64.3068H171.564V65.3224H166.726V64.3068ZM175.068 68H173.868L177.339 58.5455H178.521L181.993 68H180.792L177.967 60.0412H177.893L175.068 68ZM175.511 64.3068H180.349V65.3224H175.511V64.3068ZM183.465 68V58.5455H186.66C187.402 58.5455 188.008 58.6793 188.479 58.9471C188.953 59.2118 189.304 59.5703 189.531 60.0227C189.759 60.4751 189.873 60.9799 189.873 61.5369C189.873 62.094 189.759 62.6003 189.531 63.0558C189.307 63.5112 188.959 63.8744 188.488 64.1452C188.017 64.413 187.414 64.5469 186.678 64.5469H184.388V63.5312H186.641C187.149 63.5312 187.557 63.4435 187.865 63.2681C188.172 63.0927 188.396 62.8557 188.534 62.5572C188.676 62.2556 188.746 61.9155 188.746 61.5369C188.746 61.1584 188.676 60.8198 188.534 60.5213C188.396 60.2228 188.171 59.9889 187.86 59.8196C187.549 59.6473 187.137 59.5611 186.623 59.5611H184.61V68H183.465ZM191.717 68V58.5455H192.862V66.9844H197.257V68H191.717ZM201.209 63.2727C201.209 64.4361 201.056 65.5071 200.752 66.4858C200.45 67.4614 200.018 68.3601 199.454 69.1818H198.494C198.716 68.8771 198.922 68.5017 199.113 68.0554C199.307 67.6122 199.476 67.1259 199.621 66.5966C199.765 66.0642 199.878 65.5148 199.958 64.9485C200.041 64.3791 200.082 63.8205 200.082 63.2727C200.082 62.5402 200.011 61.797 199.87 61.043C199.728 60.2889 199.537 59.5888 199.297 58.9425C199.057 58.2962 198.79 57.7699 198.494 57.3636H199.454C200.018 58.1854 200.45 59.0856 200.752 60.0643C201.056 61.0399 201.209 62.1094 201.209 63.2727Z" fill="#71717A"/>
<rect width="38" height="30" transform="translate(316 48)" fill="#1E293B"/>
<path d="M330.916 63.0001H339.084M335 67.0839L339.084 63.0001L335 58.9163" stroke="white" stroke-width="2" stroke-linecap="round"/>
</svg>
